# xmcd
#
# Track frame offsets:
#	150
#	9372
#	23018
#	33816
#	47315
#	57663
#	67932
#	80720
#	93765
#	103800
#	115521
#	125364
#	137111
#	149192
#	160756
#	172002
#	183245
#	193370
#	204696
#	214801
#	226080
#
# Disc length: 3169 seconds
#
# Revision: 0
# Processed by: cddbd v1.5.1PL2 Copyright (c) Steve Scherf et al.
# Submitted via: audiograbber 1.83.01
#
DISCID=220c5f15
DTITLE=Countrie Hits 1 - Countrie Hits 1
DYEAR=1900
DGENRE=
TTITLE0=Blues Train
TTITLE1=Every Road
TTITLE2=I can see an Angel
TTITLE3=Courtin in the Rain
TTITLE4=The ways of a woman in love
TTITLE5=A 11
TTITLE6=Dont let the stars get in your eyes
TTITLE7=Hallelujah special
TTITLE8=Slippin around
TTITLE9=In Care On the blues
TTITLE10=Rock Island line
TTITLE11=Crazy Arms
TTITLE12=Done Rovin
TTITLE13=Jolie Blon
TTITLE14=Im Thinking tonight of my blue eyes
TTITLE15=Stop the World and let me off
TTITLE16=Hey Porter
TTITLE17=Sing a Song
TTITLE18=Six Days on the Toad
TTITLE19=All for the love of a Girl
TTITLE20=Fancy Pants
EXTD=
EXTT0=
EXTT1=
EXTT2=
EXTT3=
EXTT4=
EXTT5=
EXTT6=
EXTT7=
EXTT8=
EXTT9=
EXTT10=
EXTT11=
EXTT12=
EXTT13=
EXTT14=
EXTT15=
EXTT16=
EXTT17=
EXTT18=
EXTT19=
EXTT20=
PLAYORDER=
